<svg xmlns="http://www.w3.org/2000/svg" width="31.969" height="32" viewBox="0 0 31.969 32">
  <metadata><?xpacket begin="﻿" id="W5M0MpCehiHzreSzNTczkc9d"?>
<x:xmpmeta xmlns:x="adobe:ns:meta/" x:xmptk="Adobe XMP Core 5.6-c142 79.160924, 2017/07/13-01:06:39        ">
   <rdf:RDF xmlns:rdf="http://www.w3.org/1999/02/22-rdf-syntax-ns#">
      <rdf:Description rdf:about=""/>
   </rdf:RDF>
</x:xmpmeta>
                                                                                                    
                                                                                                    
                                                                                                    
                                                                                                    
                                                                                                    
                                                                                                    
                                                                                                    
                                                                                                    
                                                                                                    
                                                                                                    
                                                                                                    
                                                                                                    
                                                                                                    
                                                                                                    
                                                                                                    
                                                                                                    
                                                                                                    
                                                                                                    
                                                                                                    
                                                                                                    
                           
<?xpacket end="w"?></metadata>
<defs>
    <style>
      .cls-1 {
        fill: #ef4035;
        fill-rule: evenodd;
      }
    </style>
  </defs>
  <path id="Antenna_1" data-name="Antenna 1" class="cls-1" d="M1006,1349a11,11,0,0,1-7.781-18.78l3.531-3.53,15.56,15.55-3.53,3.54A10.922,10.922,0,0,1,1006,1349Zm-4.25-19.49-2.117,2.13a9,9,0,1,0,12.727,12.72l2.12-2.12Zm-0.7,13.44a7,7,0,0,1,0-9.9l1.41,1.41a5.016,5.016,0,0,0,0,7.08Zm11.78-7.12-1.42-1.42a1.98,1.98,0,0,0,0-2.82,2.041,2.041,0,0,0-2.83,0l-1.41-1.42a4.1,4.1,0,0,1,5.66,0A4.008,4.008,0,0,1,1012.83,1335.83Zm6.13-2.92a8.988,8.988,0,0,0-8.97-9v-2a10.987,10.987,0,0,1,10.97,11h-2Zm6.04,0.04a13.975,13.975,0,0,0-13.95-13.95v-2a15.981,15.981,0,0,1,15.95,15.95h-2Z" transform="translate(-995.031 -1317)"/>
</svg>
