<svg xmlns="http://www.w3.org/2000/svg" width="32" height="31.97" viewBox="0 0 32 31.97">
  <metadata><?xpacket begin="﻿" id="W5M0MpCehiHzreSzNTczkc9d"?>
<x:xmpmeta xmlns:x="adobe:ns:meta/" x:xmptk="Adobe XMP Core 5.6-c142 79.160924, 2017/07/13-01:06:39        ">
   <rdf:RDF xmlns:rdf="http://www.w3.org/1999/02/22-rdf-syntax-ns#">
      <rdf:Description rdf:about=""/>
   </rdf:RDF>
</x:xmpmeta>
                                                                                                    
                                                                                                    
                                                                                                    
                                                                                                    
                                                                                                    
                                                                                                    
                                                                                                    
                                                                                                    
                                                                                                    
                                                                                                    
                                                                                                    
                                                                                                    
                                                                                                    
                                                                                                    
                                                                                                    
                                                                                                    
                                                                                                    
                                                                                                    
                                                                                                    
                                                                                                    
                           
<?xpacket end="w"?></metadata>
<defs>
    <style>
      .cls-1 {
        fill: #ef4035;
        fill-rule: evenodd;
      }
    </style>
  </defs>
  <path id="Bulb" class="cls-1" d="M872.91,1471.45l-1.785-.9,2.532-4.9a8,8,0,1,0-11.314,0l0.114,0.12,2.4,4.78-1.787.9-2.263-4.5a10,10,0,1,1,14.374,0Zm-8.79,3.51-0.24-1.99,8-.97,0.24,1.99Zm0,3-0.24-1.99,8-.97,0.24,1.99Zm3.856,4.04a3.006,3.006,0,0,1-3-3h2a1,1,0,0,0,2,0h2A3.006,3.006,0,0,1,867.976,1482ZM864,1460h-2a6.005,6.005,0,0,1,6-6v2A4,4,0,0,0,864,1460Z" transform="translate(-852 -1450.03)"/>
</svg>
