<svg xmlns="http://www.w3.org/2000/svg" width="26" height="32" viewBox="0 0 26 32">
  <metadata><?xpacket begin="﻿" id="W5M0MpCehiHzreSzNTczkc9d"?>
<x:xmpmeta xmlns:x="adobe:ns:meta/" x:xmptk="Adobe XMP Core 5.6-c142 79.160924, 2017/07/13-01:06:39        ">
   <rdf:RDF xmlns:rdf="http://www.w3.org/1999/02/22-rdf-syntax-ns#">
      <rdf:Description rdf:about=""/>
   </rdf:RDF>
</x:xmpmeta>
                                                                                                    
                                                                                                    
                                                                                                    
                                                                                                    
                                                                                                    
                                                                                                    
                                                                                                    
                                                                                                    
                                                                                                    
                                                                                                    
                                                                                                    
                                                                                                    
                                                                                                    
                                                                                                    
                                                                                                    
                                                                                                    
                                                                                                    
                                                                                                    
                                                                                                    
                                                                                                    
                           
<?xpacket end="w"?></metadata>
<defs>
    <style>
      .cls-1 {
        fill: #ef4035;
        fill-rule: evenodd;
      }
    </style>
  </defs>
  <path id="Chemical_Glass" data-name="Chemical Glass" class="cls-1" d="M1160.96,1175h-11.99v-2h11.99v2Zm4.36,30h-20.69l-0.29-.29a8.137,8.137,0,0,1-.02-11.42l6.65-6.7V1177h1.99v10.41l-7.23,7.3a6.137,6.137,0,0,0-.25,8.29h18.99a6.157,6.157,0,0,0-.25-8.29l-7.23-7.3V1177h1.99v9.59l6.65,6.7a8.091,8.091,0,0,1-.02,11.42Zm-19.12-4.68a4.208,4.208,0,0,1-.21-1.33,3.978,3.978,0,0,1,1.16-2.87l6.99-7,1.42,1.41-7,7a2.081,2.081,0,0,0-.58,1.46,2.555,2.555,0,0,0,.11.69Z" transform="translate(-1142 -1173)"/>
</svg>
