<svg xmlns="http://www.w3.org/2000/svg" width="32" height="32" viewBox="0 0 32 32">
  <metadata><?xpacket begin="﻿" id="W5M0MpCehiHzreSzNTczkc9d"?>
<x:xmpmeta xmlns:x="adobe:ns:meta/" x:xmptk="Adobe XMP Core 5.6-c142 79.160924, 2017/07/13-01:06:39        ">
   <rdf:RDF xmlns:rdf="http://www.w3.org/1999/02/22-rdf-syntax-ns#">
      <rdf:Description rdf:about=""/>
   </rdf:RDF>
</x:xmpmeta>
                                                                                                    
                                                                                                    
                                                                                                    
                                                                                                    
                                                                                                    
                                                                                                    
                                                                                                    
                                                                                                    
                                                                                                    
                                                                                                    
                                                                                                    
                                                                                                    
                                                                                                    
                                                                                                    
                                                                                                    
                                                                                                    
                                                                                                    
                                                                                                    
                                                                                                    
                                                                                                    
                           
<?xpacket end="w"?></metadata>
<defs>
    <style>
      .cls-1 {
        fill: #ef4035;
        fill-rule: evenodd;
      }
    </style>
  </defs>
  <path id="Briefcase" class="cls-1" d="M385,80H353V67h32V80Zm-30-2h28V69H355v9Zm14-6a3,3,0,0,1-3-3h2a1,1,0,1,0,2,0h2A3,3,0,0,1,369,72Zm7-15h-4V55a3,3,0,0,0-6,0v2h-3.99V55H364a5,5,0,0,1,10,0h2v2Zm9,8h-2V61H355v4h-2V59h32v6Z" transform="translate(-353 -49)"/>
</svg>
